STARTFONT 2.3
FONT -FontForge-Syncopate-Book-R-Normal--14-140-72-72-P-105-ISO10646-1
SIZE 14 72 72  2
FONTBOUNDINGBOX 26 17 -3 -3
COMMENT "Generated by fontforge, http://fontforge.sourceforge.net"
COMMENT "Copyright (c) 2010 by Brian J. Bonislawsky DBA Astigmatic (AOETI). All rights reserved. Available under the Apache 2.0 licence.http://www.apache.org/licenses/LICENSE-2.0.html"
STARTPROPERTIES 40
FOUNDRY "FontForge"
FAMILY_NAME "Syncopate"
WEIGHT_NAME "Book"
SLANT "R"
SETWIDTH_NAME "Normal"
ADD_STYLE_NAME ""
PIXEL_SIZE 14
POINT_SIZE 140
RESOLUTION_X 72
RESOLUTION_Y 72
SPACING "P"
AVERAGE_WIDTH 105
CHARSET_REGISTRY "ISO10646"
CHARSET_ENCODING "1"
FONTNAME_REGISTRY ""
CHARSET_COLLECTIONS "ISO8859-2 ISO8859-9 ISO8859-4 ISO10646-1"
BITS_PER_PIXEL 2
FONT_NAME "Syncopate-Regular"
FACE_NAME "Syncopate Regular"
COPYRIGHT "Copyright (c) 2010 by Brian J. Bonislawsky DBA Astigmatic (AOETI). All rights reserved. Available under the Apache 2.0 licence.http://www.apache.org/licenses/LICENSE-2.0.html"
FONT_VERSION "001.001"
FONT_ASCENT 11
FONT_DESCENT 3
UNDERLINE_POSITION -1
UNDERLINE_THICKNESS 1
X_HEIGHT 9
CAP_HEIGHT 9
RAW_ASCENT 799
RAW_DESCENT 200
NORM_SPACE 5
RELATIVE_WEIGHT 40
RELATIVE_SETWIDTH 70
SUPERSCRIPT_X 0
SUPERSCRIPT_Y 4
SUPERSCRIPT_SIZE 2
SUBSCRIPT_X 0
SUBSCRIPT_Y 4
SUBSCRIPT_SIZE 2
AVG_LOWERCASE_WIDTH 120
AVG_UPPERCASE_WIDTH 115
ENDPROPERTIES
CHARS 370
STARTCHAR space
ENCODING 32
SWIDTH 375 0
DWIDTH 5 0
BBX 1 1 0 0
BITMAP
00
ENDCHAR
STARTCHAR exclam
ENCODING 33
SWIDTH 274 0
DWIDTH 4 0
BBX 2 10 1 0
BITMAP
90
90
90
90
50
50
50
50
00
90
ENDCHAR
STARTCHAR quotedbl
ENCODING 34
SWIDTH 290 0
DWIDTH 4 0
BBX 4 3 0 7
BITMAP
56
55
55
ENDCHAR
STARTCHAR numbersign
ENCODING 35
SWIDTH 701 0
DWIDTH 10 0
BBX 9 10 0 0
BITMAP
014200
014200
020200
2FFFC0
020800
050800
7FFF40
081400
081400
082000
ENDCHAR
STARTCHAR dollar
ENCODING 36
SWIDTH 767 0
DWIDTH 11 0
BBX 9 12 1 -1
BITMAP
008000
1BF900
A48600
C08000
A08000
1E9000
01ED00
008240
008180
908740
6FF900
008000
ENDCHAR
STARTCHAR percent
ENCODING 37
SWIDTH 992 0
DWIDTH 14 0
BBX 13 10 0 0
BITMAP
1B801400
24606000
60208000
24624000
1B850000
0018BD00
00218240
00920180
01418240
0600BE00
ENDCHAR
STARTCHAR ampersand
ENCODING 38
SWIDTH 926 0
DWIDTH 13 0
BBX 11 10 1 0
BITMAP
06F800
190900
140900
086400
0B4000
258014
902424
C00A60
A402D0
1BF964
ENDCHAR
STARTCHAR quotesingle
ENCODING 39
SWIDTH 140 0
DWIDTH 2 0
BBX 2 3 0 7
BITMAP
50
50
50
ENDCHAR
STARTCHAR parenleft
ENCODING 40
SWIDTH 420 0
DWIDTH 6 0
BBX 4 11 1 -1
BITMAP
09
28
20
90
80
C0
80
90
20
28
09
ENDCHAR
STARTCHAR parenright
ENCODING 41
SWIDTH 420 0
DWIDTH 6 0
BBX 4 11 1 -1
BITMAP
60
24
0C
09
06
02
06
05
0C
24
60
ENDCHAR
STARTCHAR asterisk
ENCODING 42
SWIDTH 503 0
DWIDTH 7 0
BBX 5 5 1 5
BITMAP
0800
9980
2E00
9980
0800
ENDCHAR
STARTCHAR plus
ENCODING 43
SWIDTH 634 0
DWIDTH 9 0
BBX 7 7 1 1
BITMAP
0200
0200
0200
BFF8
0200
0200
0200
ENDCHAR
STARTCHAR comma
ENCODING 44
SWIDTH 185 0
DWIDTH 3 0
BBX 2 3 0 -2
BITMAP
70
60
90
ENDCHAR
STARTCHAR hyphen
ENCODING 45
SWIDTH 540 0
DWIDTH 8 0
BBX 6 1 1 4
BITMAP
FFD0
ENDCHAR
STARTCHAR period
ENCODING 46
SWIDTH 185 0
DWIDTH 3 0
BBX 2 1 0 0
BITMAP
70
ENDCHAR
STARTCHAR slash
ENCODING 47
SWIDTH 500 0
DWIDTH 7 0
BBX 5 10 1 0
BITMAP
0080
0180
0200
0600
0800
0800
2400
2000
9000
8000
ENDCHAR
STARTCHAR zero
ENCODING 48
SWIDTH 833 0
DWIDTH 12 0
BBX 10 10 1 0
BITMAP
06F900
290740
6000D0
C00060
800020
800020
C00060
6000D0
290740
06F900
ENDCHAR
STARTCHAR one
ENCODING 49
SWIDTH 339 0
DWIDTH 5 0
BBX 3 10 0 0
BITMAP
FC
08
08
08
08
08
08
08
08
08
ENDCHAR
STARTCHAR two
ENCODING 50
SWIDTH 728 0
DWIDTH 10 0
BBX 10 10 0 0
BITMAP
1BF900
640680
0000C0
000080
000180
000600
002800
019000
190000
7FFFD0
ENDCHAR
STARTCHAR three
ENCODING 51
SWIDTH 726 0
DWIDTH 10 0
BBX 9 10 0 0
BITMAP
1BF900
640680
000080
000640
02F900
000640
000080
0000C0
640680
1BF900
ENDCHAR
STARTCHAR four
ENCODING 52
SWIDTH 769 0
DWIDTH 11 0
BBX 11 10 0 0
BITMAP
000B00
002700
008300
020300
080300
200300
BFFFF4
000300
000300
000300
ENDCHAR
STARTCHAR five
ENCODING 53
SWIDTH 738 0
DWIDTH 10 0
BBX 9 10 1 0
BITMAP
BFFE00
800000
800000
800000
BFF800
001B00
000140
000140
901B00
6FE800
ENDCHAR
STARTCHAR six
ENCODING 54
SWIDTH 772 0
DWIDTH 11 0
BBX 10 10 1 0
BITMAP
06FF40
290000
600000
C00000
CAF900
F40680
C00090
900080
340680
0BF900
ENDCHAR
STARTCHAR seven
ENCODING 55
SWIDTH 669 0
DWIDTH 9 0
BBX 9 10 0 0
BITMAP
FFFFC0
000240
000200
000900
001800
003000
009000
018000
024000
060000
ENDCHAR
STARTCHAR eight
ENCODING 56
SWIDTH 793 0
DWIDTH 11 0
BBX 11 10 0 0
BITMAP
06FE40
190190
140060
0A4580
02FE00
1A45D0
200024
600024
2901A0
06FE40
ENDCHAR
STARTCHAR nine
ENCODING 57
SWIDTH 776 0
DWIDTH 11 0
BBX 10 10 0 0
BITMAP
06F900
290280
600060
600020
2805B0
0BF930
000060
000090
000680
2FF900
ENDCHAR
STARTCHAR colon
ENCODING 58
SWIDTH 245 0
DWIDTH 3 0
BBX 2 7 1 0
BITMAP
D0
00
00
00
00
00
D0
ENDCHAR
STARTCHAR semicolon
ENCODING 59
SWIDTH 234 0
DWIDTH 3 0
BBX 3 9 0 -2
BITMAP
34
00
00
00
00
00
30
30
60
ENDCHAR
STARTCHAR less
ENCODING 60
SWIDTH 634 0
DWIDTH 9 0
BBX 7 7 1 1
BITMAP
0018
02E0
6D00
E000
6D00
02E0
0018
ENDCHAR
STARTCHAR equal
ENCODING 61
SWIDTH 634 0
DWIDTH 9 0
BBX 7 4 1 3
BITMAP
BFF8
0000
0000
BFF8
ENDCHAR
STARTCHAR greater
ENCODING 62
SWIDTH 634 0
DWIDTH 9 0
BBX 7 7 1 1
BITMAP
9000
2D00
01E0
0028
01E0
2D00
9000
ENDCHAR
STARTCHAR question
ENCODING 63
SWIDTH 568 0
DWIDTH 8 0
BBX 6 10 1 0
BITMAP
7F80
80A0
0030
0060
0180
2900
2000
0000
0000
2400
ENDCHAR
STARTCHAR at
ENCODING 64
SWIDTH 1016 0
DWIDTH 14 0
BBX 12 10 1 0
BITMAP
01BF90
0A4068
340006
907E83
819182
C24143
92424A
60BDF8
2D4000
06FFD0
ENDCHAR
STARTCHAR A
ENCODING 65
SWIDTH 812 0
DWIDTH 11 0
BBX 11 10 0 0
BITMAP
003400
009C00
00C900
024300
030240
0A01C0
0C0090
1FFFF0
340024
600018
ENDCHAR
STARTCHAR B
ENCODING 66
SWIDTH 836 0
DWIDTH 12 0
BBX 10 10 1 0
BITMAP
7FFE40
5001C0
500080
500180
7FFF40
500190
500020
500030
5000A0
7FFF80
ENDCHAR
STARTCHAR C
ENCODING 67
SWIDTH 869 0
DWIDTH 12 0
BBX 11 10 1 0
BITMAP
06FF90
290064
600000
800000
C00000
C00000
C00000
600000
290064
06FF90
ENDCHAR
STARTCHAR D
ENCODING 68
SWIDTH 910 0
DWIDTH 13 0
BBX 11 10 1 0
BITMAP
7FFE40
5001A0
500024
500018
500008
500008
500018
500024
5001A0
7FFE40
ENDCHAR
STARTCHAR E
ENCODING 69
SWIDTH 754 0
DWIDTH 11 0
BBX 9 10 1 0
BITMAP
7FFF40
600000
600000
600000
7FFF00
600000
600000
600000
600000
7FFF80
ENDCHAR
STARTCHAR F
ENCODING 70
SWIDTH 687 0
DWIDTH 10 0
BBX 8 10 1 0
BITMAP
7FFF
5000
5000
5000
7FFE
5000
5000
5000
5000
5000
ENDCHAR
STARTCHAR G
ENCODING 71
SWIDTH 910 0
DWIDTH 13 0
BBX 11 10 1 0
BITMAP
06FF90
2D0064
600000
800000
C00000
C00FF8
C00018
600018
2D0028
06FFA4
ENDCHAR
STARTCHAR H
ENCODING 72
SWIDTH 949 0
DWIDTH 13 0
BBX 11 10 1 0
BITMAP
500008
500008
500008
500008
7FFFF8
500008
500008
500008
500008
500008
ENDCHAR
STARTCHAR I
ENCODING 73
SWIDTH 287 0
DWIDTH 4 0
BBX 2 10 1 0
BITMAP
50
50
50
50
50
50
50
50
50
50
ENDCHAR
STARTCHAR J
ENCODING 74
SWIDTH 590 0
DWIDTH 8 0
BBX 7 10 0 0
BITMAP
0008
0008
0008
0008
0008
0008
0008
0018
0074
FF90
ENDCHAR
STARTCHAR K
ENCODING 75
SWIDTH 806 0
DWIDTH 11 0
BBX 10 10 1 0
BITMAP
500180
500900
506400
528000
6D0000
6A0000
519000
502800
500A00
500190
ENDCHAR
STARTCHAR L
ENCODING 76
SWIDTH 701 0
DWIDTH 10 0
BBX 9 10 1 0
BITMAP
500000
500000
500000
500000
500000
500000
500000
500000
500000
7FFF40
ENDCHAR
STARTCHAR M
ENCODING 77
SWIDTH 1139 0
DWIDTH 16 0
BBX 14 10 1 0
BITMAP
60000090
740001D0
58000290
56000950
52401850
50802050
50505050
50208050
501A4050
500A0050
ENDCHAR
STARTCHAR N
ENCODING 78
SWIDTH 936 0
DWIDTH 13 0
BBX 11 10 1 0
BITMAP
700018
680018
560018
518018
506018
502818
500918
500258
5000A8
500028
ENDCHAR
STARTCHAR O
ENCODING 79
SWIDTH 983 0
DWIDTH 14 0
BBX 12 10 1 0
BITMAP
06FF90
290074
600009
C00006
C00002
C00002
C00006
600009
290074
06FF90
ENDCHAR
STARTCHAR P
ENCODING 80
SWIDTH 818 0
DWIDTH 11 0
BBX 10 10 1 0
BITMAP
7FFE40
500190
500060
500060
500190
7FFE40
500000
500000
500000
500000
ENDCHAR
STARTCHAR Q
ENCODING 81
SWIDTH 983 0
DWIDTH 14 0
BBX 13 10 1 0
BITMAP
06FF9000
29007400
60000900
C0000600
C0000200
C0000200
C0000600
60064900
2901F900
06FF9680
ENDCHAR
STARTCHAR R
ENCODING 82
SWIDTH 833 0
DWIDTH 12 0
BBX 10 10 1 0
BITMAP
7FFE00
5001C0
500090
500090
5001C0
7FFE00
500900
500240
500080
500060
ENDCHAR
STARTCHAR S
ENCODING 83
SWIDTH 787 0
DWIDTH 11 0
BBX 9 10 1 0
BITMAP
1BF900
A40600
800000
600000
1A9000
006A00
000180
0000C0
940680
2BF900
ENDCHAR
STARTCHAR T
ENCODING 84
SWIDTH 708 0
DWIDTH 10 0
BBX 10 10 0 0
BITMAP
BFFFE0
005000
005000
005000
005000
005000
005000
005000
005000
005000
ENDCHAR
STARTCHAR U
ENCODING 85
SWIDTH 891 0
DWIDTH 12 0
BBX 10 10 1 0
BITMAP
900030
900030
900030
900030
900030
900030
500030
600070
3901D0
0AFE40
ENDCHAR
STARTCHAR V
ENCODING 86
SWIDTH 817 0
DWIDTH 11 0
BBX 11 10 0 0
BITMAP
600008
300024
140030
0C0090
0900C0
030140
024200
008600
009800
007800
ENDCHAR
STARTCHAR W
ENCODING 87
SWIDTH 1266 0
DWIDTH 18 0
BBX 17 10 0 0
BITMAP
6000E000C0
3001B00180
2402640240
0803180300
0806080600
0609050800
0308021800
0254022400
01A001B000
00E000E000
ENDCHAR
STARTCHAR X
ENCODING 88
SWIDTH 821 0
DWIDTH 12 0
BBX 10 10 1 0
BITMAP
900090
240240
090900
022800
01E000
01A000
061800
180600
200280
900090
ENDCHAR
STARTCHAR Y
ENCODING 89
SWIDTH 763 0
DWIDTH 11 0
BBX 9 10 1 0
BITMAP
800180
600200
240900
091400
026000
01C000
008000
008000
008000
008000
ENDCHAR
STARTCHAR Z
ENCODING 90
SWIDTH 728 0
DWIDTH 10 0
BBX 9 10 1 0
BITMAP
BFFF00
000900
001800
006000
018000
020000
090000
240000
600000
FFFF40
ENDCHAR
STARTCHAR bracketleft
ENCODING 91
SWIDTH 409 0
DWIDTH 6 0
BBX 4 11 1 -1
BITMAP
7F
60
60
60
60
60
60
60
60
60
7F
ENDCHAR
STARTCHAR backslash
ENCODING 92
SWIDTH 500 0
DWIDTH 7 0
BBX 5 10 1 0
BITMAP
8000
9000
2000
2400
0800
0800
0600
0200
0180
0080
ENDCHAR
STARTCHAR bracketright
ENCODING 93
SWIDTH 409 0
DWIDTH 6 0
BBX 4 11 0 -1
BITMAP
7F
03
03
03
03
03
03
03
03
03
7F
ENDCHAR
STARTCHAR asciicircum
ENCODING 94
SWIDTH 459 0
DWIDTH 6 0
BBX 6 4 0 6
BITMAP
0B00
0980
2480
6060
ENDCHAR
STARTCHAR underscore
ENCODING 95
SWIDTH 500 0
DWIDTH 7 0
BBX 7 1 0 -2
BITMAP
FFFC
ENDCHAR
STARTCHAR grave
ENCODING 96
SWIDTH 527 0
DWIDTH 7 0
BBX 4 2 1 9
BITMAP
60
19
ENDCHAR
STARTCHAR a
ENCODING 97
SWIDTH 888 0
DWIDTH 12 0
BBX 10 10 1 0
BITMAP
1BFE40
6401D0
000020
000030
01ABF0
2E5430
900030
800030
A406F0
2FF930
ENDCHAR
STARTCHAR b
ENCODING 98
SWIDTH 836 0
DWIDTH 12 0
BBX 10 10 1 0
BITMAP
7FFE40
5001C0
500080
500180
7FFF40
500190
500020
500030
5000A0
7FFF80
ENDCHAR
STARTCHAR c
ENCODING 99
SWIDTH 869 0
DWIDTH 12 0
BBX 11 10 1 0
BITMAP
06FF90
290064
600000
800000
C00000
C00000
C00000
600000
290064
06FF90
ENDCHAR
STARTCHAR d
ENCODING 100
SWIDTH 910 0
DWIDTH 13 0
BBX 11 10 1 0
BITMAP
7FFE40
5001A0
500024
500018
500008
500008
500018
500024
5001A0
7FFE40
ENDCHAR
STARTCHAR e
ENCODING 101
SWIDTH 910 0
DWIDTH 13 0
BBX 11 10 1 0
BITMAP
06FE40
2901A0
600024
800008
FFFFF8
C00000
D00000
600000
2D0060
06FF90
ENDCHAR
STARTCHAR f
ENCODING 102
SWIDTH 817 0
DWIDTH 11 0
BBX 10 10 1 0
BITMAP
0BFFE0
390000
600000
500000
500000
7FFFD0
500000
500000
500000
500000
ENDCHAR
STARTCHAR g
ENCODING 103
SWIDTH 910 0
DWIDTH 13 0
BBX 11 10 1 0
BITMAP
06FF90
2D0064
600000
800000
C00000
C00FF8
C00018
600018
2D0028
06FFA4
ENDCHAR
STARTCHAR h
ENCODING 104
SWIDTH 949 0
DWIDTH 13 0
BBX 11 10 1 0
BITMAP
500008
500008
500008
500008
7FFFF8
500008
500008
500008
500008
500008
ENDCHAR
STARTCHAR i
ENCODING 105
SWIDTH 287 0
DWIDTH 4 0
BBX 2 10 1 0
BITMAP
50
50
50
50
50
50
50
50
50
50
ENDCHAR
STARTCHAR j
ENCODING 106
SWIDTH 590 0
DWIDTH 8 0
BBX 7 10 0 0
BITMAP
0008
0008
0008
0008
0008
0008
0008
0018
0074
FF90
ENDCHAR
STARTCHAR k
ENCODING 107
SWIDTH 867 0
DWIDTH 12 0
BBX 10 10 1 0
BITMAP
500060
500090
500240
506900
7FE400
505E00
500280
5000A0
500030
500020
ENDCHAR
STARTCHAR l
ENCODING 108
SWIDTH 709 0
DWIDTH 10 0
BBX 9 10 1 0
BITMAP
500000
500000
500000
500000
500000
500000
500000
600000
340000
1BFF80
ENDCHAR
STARTCHAR m
ENCODING 109
SWIDTH 1246 0
DWIDTH 17 0
BBX 15 10 1 0
BITMAP
52F81BD0
690AA424
60034008
5002000C
5002000C
5002000C
5002000C
5002000C
5002000C
5002000C
ENDCHAR
STARTCHAR n
ENCODING 110
SWIDTH 933 0
DWIDTH 13 0
BBX 11 10 1 0
BITMAP
51BF80
6A4070
740024
500018
500018
500018
500018
500018
500018
500018
ENDCHAR
STARTCHAR o
ENCODING 111
SWIDTH 983 0
DWIDTH 14 0
BBX 12 10 1 0
BITMAP
06FF90
290074
600009
C00006
C00002
C00002
C00006
600009
290074
06FF90
ENDCHAR
STARTCHAR p
ENCODING 112
SWIDTH 818 0
DWIDTH 11 0
BBX 10 10 1 0
BITMAP
7FFE40
500190
500060
500060
500190
7FFE40
500000
500000
500000
500000
ENDCHAR
STARTCHAR q
ENCODING 113
SWIDTH 983 0
DWIDTH 14 0
BBX 13 10 1 0
BITMAP
06FF9000
29007400
60000900
C0000600
C0000200
C0000200
C0000600
60000900
29007800
06FF9A40
ENDCHAR
STARTCHAR r
ENCODING 114
SWIDTH 609 0
DWIDTH 9 0
BBX 8 10 1 0
BITMAP
51BD
5A40
7400
6000
5000
5000
5000
5000
5000
5000
ENDCHAR
STARTCHAR s
ENCODING 115
SWIDTH 787 0
DWIDTH 11 0
BBX 9 10 1 0
BITMAP
1BF900
A40600
800000
600000
1A9000
006A00
000180
0000C0
940680
2BF900
ENDCHAR
STARTCHAR t
ENCODING 116
SWIDTH 708 0
DWIDTH 10 0
BBX 10 10 0 0
BITMAP
BFFFE0
005000
005000
005000
005000
005000
005000
005000
005000
005000
ENDCHAR
STARTCHAR u
ENCODING 117
SWIDTH 931 0
DWIDTH 13 0
BBX 11 10 1 0
BITMAP
500014
500014
500014
500014
500014
500014
500014
600074
3406A4
0BF914
ENDCHAR
STARTCHAR v
ENCODING 118
SWIDTH 817 0
DWIDTH 11 0
BBX 11 10 0 0
BITMAP
600008
300024
140030
0C0090
0900C0
030140
024200
008600
009800
007800
ENDCHAR
STARTCHAR w
ENCODING 119
SWIDTH 1266 0
DWIDTH 18 0
BBX 17 10 0 0
BITMAP
6000E000C0
3001B00180
2402640240
0803180300
0806080600
0609050800
0308021800
0254022400
01A001B000
00E000E000
ENDCHAR
STARTCHAR x
ENCODING 120
SWIDTH 821 0
DWIDTH 12 0
BBX 10 10 1 0
BITMAP
900090
240240
090900
022800
01E000
01A000
061800
180600
200280
900090
ENDCHAR
STARTCHAR y
ENCODING 121
SWIDTH 911 0
DWIDTH 13 0
BBX 11 10 1 0
BITMAP
800024
800024
800024
900034
6000B4
280764
0BF920
000070
9406D0
2BFA00
ENDCHAR
STARTCHAR z
ENCODING 122
SWIDTH 728 0
DWIDTH 10 0
BBX 9 10 1 0
BITMAP
BFFF00
000900
001800
006000
018000
020000
090000
240000
600000
FFFF40
ENDCHAR
STARTCHAR braceleft
ENCODING 123
SWIDTH 386 0
DWIDTH 5 0
BBX 5 11 0 -1
BITMAP
0780
0C00
0C00
0800
1800
B000
1800
0800
0C00
0C00
0780
ENDCHAR
STARTCHAR bar
ENCODING 124
SWIDTH 259 0
DWIDTH 4 0
BBX 2 14 1 -3
BITMAP
90
90
90
90
90
90
90
90
90
90
90
90
90
90
ENDCHAR
STARTCHAR braceright
ENCODING 125
SWIDTH 386 0
DWIDTH 5 0
BBX 5 11 0 -1
BITMAP
7800
0900
0500
0500
0600
02C0
0600
0500
0500
0900
7800
ENDCHAR
STARTCHAR asciitilde
ENCODING 126
SWIDTH 634 0
DWIDTH 9 0
BBX 7 2 1 4
BITMAP
7904
46F4
ENDCHAR
STARTCHAR nonbreakingspace
ENCODING 160
SWIDTH 375 0
DWIDTH 5 0
BBX 1 1 0 0
BITMAP
00
ENDCHAR
STARTCHAR exclamdown
ENCODING 161
SWIDTH 274 0
DWIDTH 4 0
BBX 2 10 1 0
BITMAP
90
00
50
50
50
50
90
90
90
90
ENDCHAR
STARTCHAR cent
ENCODING 162
SWIDTH 736 0
DWIDTH 10 0
BBX 10 10 0 0
BITMAP
002000
02BE40
1D6160
302000
602000
602000
302000
1D2060
02FE80
002000
ENDCHAR
STARTCHAR sterling
ENCODING 163
SWIDTH 792 0
DWIDTH 11 0
BBX 10 10 1 0
BITMAP
01FF80
064000
0C0000
080000
080000
FFFD00
080000
180000
240000
FFFFD0
ENDCHAR
STARTCHAR currency
ENCODING 164
SWIDTH 560 0
DWIDTH 8 0
BBX 6 7 1 1
BITMAP
4010
AF90
6090
8050
6090
AF90
4010
ENDCHAR
STARTCHAR yen
ENCODING 165
SWIDTH 811 0
DWIDTH 11 0
BBX 9 10 1 0
BITMAP
900080
200240
180500
061800
BFBFC0
00D000
BFFFC0
008000
008000
008000
ENDCHAR
STARTCHAR brokenbar
ENCODING 166
SWIDTH 259 0
DWIDTH 4 0
BBX 2 12 1 -2
BITMAP
90
90
90
90
90
00
00
90
90
90
90
90
ENDCHAR
STARTCHAR section
ENCODING 167
SWIDTH 500 0
DWIDTH 7 0
BBX 5 10 1 0
BITMAP
6F80
9000
6400
AA00
81C0
D080
6A80
0740
0180
BE40
ENDCHAR
STARTCHAR dieresis
ENCODING 168
SWIDTH 527 0
DWIDTH 7 0
BBX 5 1 1 9
BITMAP
6180
ENDCHAR
STARTCHAR copyright
ENCODING 169
SWIDTH 770 0
DWIDTH 11 0
BBX 10 9 0 0
BITMAP
02F900
0D0280
25FD60
224020
550020
224020
25FD60
0D0280
02FD00
ENDCHAR
STARTCHAR ordfeminine
ENCODING 170
SWIDTH 497 0
DWIDTH 7 0
BBX 7 7 0 3
BITMAP
3FD0
0020
1BF4
6424
6FA4
0000
7FF4
ENDCHAR
STARTCHAR guillemotleft
ENCODING 171
SWIDTH 440 0
DWIDTH 6 0
BBX 6 5 0 2
BITMAP
0850
2580
6300
2580
0850
ENDCHAR
STARTCHAR logicalnot
ENCODING 172
SWIDTH 634 0
DWIDTH 9 0
BBX 7 3 1 3
BITMAP
BFF8
0008
0008
ENDCHAR
STARTCHAR uni00AD
ENCODING 173
SWIDTH 540 0
DWIDTH 8 0
BBX 6 1 1 4
BITMAP
FFD0
ENDCHAR
STARTCHAR registered
ENCODING 174
SWIDTH 600 0
DWIDTH 8 0
BBX 8 7 0 3
BITMAP
07E0
2BE8
2565
57D2
2525
2818
07E0
ENDCHAR
STARTCHAR macron
ENCODING 175
SWIDTH 527 0
DWIDTH 7 0
BBX 5 1 1 9
BITMAP
7F80
ENDCHAR
STARTCHAR degree
ENCODING 176
SWIDTH 373 0
DWIDTH 5 0
BBX 4 3 1 7
BITMAP
B8
89
B8
ENDCHAR
STARTCHAR plusminus
ENCODING 177
SWIDTH 634 0
DWIDTH 9 0
BBX 7 8 1 1
BITMAP
0200
0200
0200
BFF8
0200
0200
0000
BFF8
ENDCHAR
STARTCHAR twosuperior
ENCODING 178
SWIDTH 511 0
DWIDTH 7 0
BBX 7 6 0 4
BITMAP
7F90
0074
0020
0190
1500
7FF4
ENDCHAR
STARTCHAR threesuperior
ENCODING 179
SWIDTH 512 0
DWIDTH 7 0
BBX 6 6 0 4
BITMAP
7FD0
0070
0BD0
0060
0060
BF90
ENDCHAR
STARTCHAR acute
ENCODING 180
SWIDTH 527 0
DWIDTH 7 0
BBX 3 2 3 9
BITMAP
18
90
ENDCHAR
STARTCHAR micro
ENCODING 181
SWIDTH 705 0
DWIDTH 10 0
BBX 9 10 0 -3
BITMAP
080140
080240
180200
140300
240600
281A00
27D200
200000
600000
500000
ENDCHAR
STARTCHAR paragraph
ENCODING 182
SWIDTH 585 0
DWIDTH 8 0
BBX 6 10 1 0
BITMAP
2FE0
FE20
FE20
FE20
2E20
0220
0220
0220
0220
0220
ENDCHAR
STARTCHAR periodcentered
ENCODING 183
SWIDTH 185 0
DWIDTH 3 0
BBX 2 1 0 4
BITMAP
70
ENDCHAR
STARTCHAR cedilla
ENCODING 184
SWIDTH 527 0
DWIDTH 7 0
BBX 4 3 2 -3
BITMAP
28
09
F8
ENDCHAR
STARTCHAR onesuperior
ENCODING 185
SWIDTH 261 0
DWIDTH 4 0
BBX 3 6 0 4
BITMAP
F4
14
14
14
14
14
ENDCHAR
STARTCHAR ordmasculine
ENCODING 186
SWIDTH 520 0
DWIDTH 7 0
BBX 7 7 0 3
BITMAP
1BE0
6028
9008
6018
1BE0
0000
7FF8
ENDCHAR
STARTCHAR guillemotright
ENCODING 187
SWIDTH 440 0
DWIDTH 6 0
BBX 6 5 0 2
BITMAP
6240
2480
0C60
2480
6240
ENDCHAR
STARTCHAR onequarter
ENCODING 188
SWIDTH 857 0
DWIDTH 12 0
BBX 12 10 0 0
BITMAP
B80090
180240
180600
180800
182400
0090B0
018260
020920
091FFD
240020
ENDCHAR
STARTCHAR onehalf
ENCODING 189
SWIDTH 937 0
DWIDTH 13 0
BBX 12 10 0 0
BITMAP
B80090
180240
180600
180800
182400
0092FD
018007
020005
090054
2402FF
ENDCHAR
STARTCHAR threequarters
ENCODING 190
SWIDTH 978 0
DWIDTH 14 0
BBX 13 10 0 0
BITMAP
7F800800
00902000
0B809000
00918000
7F820000
00080A00
00242600
00618200
0082FFC0
02000200
ENDCHAR
STARTCHAR questiondown
ENCODING 191
SWIDTH 568 0
DWIDTH 8 0
BBX 6 10 1 0
BITMAP
0180
0000
0000
0080
0680
2400
8000
C000
A020
2FD0
ENDCHAR
STARTCHAR Agrave
ENCODING 192
SWIDTH 812 0
DWIDTH 11 0
BBX 11 13 0 0
BITMAP
018000
006400
000000
003400
009C00
00C900
024300
030240
0A01C0
0C0090
1FFFF0
340024
600018
ENDCHAR
STARTCHAR Aacute
ENCODING 193
SWIDTH 812 0
DWIDTH 11 0
BBX 11 13 0 0
BITMAP
000600
002400
000000
003400
009C00
00C900
024300
030240
0A01C0
0C0090
1FFFF0
340024
600018
ENDCHAR
STARTCHAR Acircumflex
ENCODING 194
SWIDTH 812 0
DWIDTH 11 0
BBX 11 13 0 0
BITMAP
006800
024600
000000
003400
009C00
00C900
024300
030240
0A01C0
0C0090
1FFFF0
340024
600018
ENDCHAR
STARTCHAR Atilde
ENCODING 195
SWIDTH 812 0
DWIDTH 11 0
BBX 11 13 0 0
BITMAP
01E200
021E00
000000
003400
009C00
00C900
024300
030240
0A01C0
0C0090
1FFFF0
340024
600018
ENDCHAR
STARTCHAR Adieresis
ENCODING 196
SWIDTH 812 0
DWIDTH 11 0
BBX 11 12 0 0
BITMAP
018600
000000
003400
009C00
00C900
024300
030240
0A01C0
0C0090
1FFFF0
340024
600018
ENDCHAR
STARTCHAR Aring
ENCODING 197
SWIDTH 812 0
DWIDTH 11 0
BBX 11 14 0 0
BITMAP
00B800
008500
00B800
000000
003400
009C00
00C900
024300
030240
0A01C0
0C0090
1FFFF0
340024
600018
ENDCHAR
STARTCHAR AE
ENCODING 198
SWIDTH 1172 0
DWIDTH 16 0
BBX 16 10 0 0
BITMAP
000FFFFD
00264000
00724000
00D24000
0282FFFC
03024000
0A024000
1FFF4000
34024000
A002FFFD
ENDCHAR
STARTCHAR Ccedilla
ENCODING 199
SWIDTH 869 0
DWIDTH 12 0
BBX 11 13 1 -3
BITMAP
06FF90
290064
600000
800000
C00000
C00000
C00000
600000
290064
06FF90
003800
000800
00F800
ENDCHAR
STARTCHAR Egrave
ENCODING 200
SWIDTH 754 0
DWIDTH 11 0
BBX 9 13 1 0
BITMAP
090000
018000
000000
7FFF40
600000
600000
600000
7FFF00
600000
600000
600000
600000
7FFF80
ENDCHAR
STARTCHAR Eacute
ENCODING 201
SWIDTH 754 0
DWIDTH 11 0
BBX 9 13 1 0
BITMAP
002800
019000
000000
7FFF40
600000
600000
600000
7FFF00
600000
600000
600000
600000
7FFF80
ENDCHAR
STARTCHAR Ecircumflex
ENCODING 202
SWIDTH 754 0
DWIDTH 11 0
BBX 9 13 1 0
BITMAP
01D000
091800
000000
7FFF40
600000
600000
600000
7FFF00
600000
600000
600000
600000
7FFF80
ENDCHAR
STARTCHAR Edieresis
ENCODING 203
SWIDTH 754 0
DWIDTH 11 0
BBX 9 12 1 0
BITMAP
062400
000000
7FFF40
600000
600000
600000
7FFF00
600000
600000
600000
600000
7FFF80
ENDCHAR
STARTCHAR Igrave
ENCODING 204
SWIDTH 287 0
DWIDTH 4 0
BBX 4 13 -1 0
BITMAP
64
0A
00
05
05
05
05
05
05
05
05
05
05
ENDCHAR
STARTCHAR Iacute
ENCODING 205
SWIDTH 287 0
DWIDTH 4 0
BBX 4 13 1 0
BITMAP
19
60
00
50
50
50
50
50
50
50
50
50
50
ENDCHAR
STARTCHAR Icircumflex
ENCODING 206
SWIDTH 287 0
DWIDTH 4 0
BBX 6 13 -1 0
BITMAP
0A00
6090
0000
0500
0500
0500
0500
0500
0500
0500
0500
0500
0500
ENDCHAR
STARTCHAR Idieresis
ENCODING 207
SWIDTH 287 0
DWIDTH 4 0
BBX 4 12 0 0
BITMAP
C3
00
14
14
14
14
14
14
14
14
14
14
ENDCHAR
STARTCHAR Eth
ENCODING 208
SWIDTH 910 0
DWIDTH 13 0
BBX 12 10 0 0
BITMAP
1FFF90
140068
140009
140006
BFF402
140002
140006
140009
140068
1FFF90
ENDCHAR
STARTCHAR Ntilde
ENCODING 209
SWIDTH 936 0
DWIDTH 13 0
BBX 11 13 1 0
BITMAP
01E200
022D00
000000
700018
680018
560018
518018
506018
502818
500918
500258
5000A8
500028
ENDCHAR
STARTCHAR Ograve
ENCODING 210
SWIDTH 983 0
DWIDTH 14 0
BBX 12 13 1 0
BITMAP
019000
002400
000000
06FF90
290074
600009
C00006
C00002
C00002
C00006
600009
290074
06FF90
ENDCHAR
STARTCHAR Oacute
ENCODING 211
SWIDTH 983 0
DWIDTH 14 0
BBX 12 13 1 0
BITMAP
000600
002400
000000
06FF90
290074
600009
C00006
C00002
C00002
C00006
600009
290074
06FF90
ENDCHAR
STARTCHAR Ocircumflex
ENCODING 212
SWIDTH 983 0
DWIDTH 14 0
BBX 12 13 1 0
BITMAP
006800
018640
000000
06FF90
290074
600009
C00006
C00002
C00002
C00006
600009
290074
06FF90
ENDCHAR
STARTCHAR Otilde
ENCODING 213
SWIDTH 983 0
DWIDTH 14 0
BBX 12 13 1 0
BITMAP
00E540
015E00
000000
06FF90
290074
600009
C00006
C00002
C00002
C00006
600009
290074
06FF90
ENDCHAR
STARTCHAR Odieresis
ENCODING 214
SWIDTH 983 0
DWIDTH 14 0
BBX 12 12 1 0
BITMAP
00C600
000000
06FF90
290074
600009
C00006
C00002
C00002
C00006
600009
290074
06FF90
ENDCHAR
STARTCHAR multiply
ENCODING 215
SWIDTH 634 0
DWIDTH 9 0
BBX 6 6 1 2
BITMAP
6020
2890
0A40
0A40
2890
6020
ENDCHAR
STARTCHAR Oslash
ENCODING 216
SWIDTH 983 0
DWIDTH 14 0
BBX 12 12 1 -1
BITMAP
000024
06FFA0
2901F4
60024D
C00506
C01802
C02002
C09006
614009
2B0074
0AFF90
140000
ENDCHAR
STARTCHAR Ugrave
ENCODING 217
SWIDTH 891 0
DWIDTH 12 0
BBX 10 13 1 0
BITMAP
024000
006000
000000
900030
900030
900030
900030
900030
900030
500030
600070
3901D0
0AFE40
ENDCHAR
STARTCHAR Uacute
ENCODING 218
SWIDTH 891 0
DWIDTH 12 0
BBX 10 13 1 0
BITMAP
000900
006400
000000
900030
900030
900030
900030
900030
900030
500030
600070
3901D0
0AFE40
ENDCHAR
STARTCHAR Ucircumflex
ENCODING 219
SWIDTH 891 0
DWIDTH 12 0
BBX 10 13 1 0
BITMAP
00A400
064600
000000
900030
900030
900030
900030
900030
900030
500030
600070
3901D0
0AFE40
ENDCHAR
STARTCHAR Udieresis
ENCODING 220
SWIDTH 891 0
DWIDTH 12 0
BBX 10 12 1 0
BITMAP
024C00
000000
900030
900030
900030
900030
900030
900030
500030
600070
3901D0
0AFE40
ENDCHAR
STARTCHAR Yacute
ENCODING 221
SWIDTH 763 0
DWIDTH 11 0
BBX 9 13 1 0
BITMAP
002800
019000
000000
800180
600200
240900
091400
026000
01C000
008000
008000
008000
008000
ENDCHAR
STARTCHAR Thorn
ENCODING 222
SWIDTH 787 0
DWIDTH 11 0
BBX 9 10 1 0
BITMAP
500000
500000
7FFE00
500680
500080
500080
500180
7FFE00
500000
500000
ENDCHAR
STARTCHAR germandbls
ENCODING 223
SWIDTH 863 0
DWIDTH 12 0
BBX 11 10 1 0
BITMAP
0BFE40
3901C0
900090
800180
82FF40
8001A0
800020
800024
8001A0
8BFE40
ENDCHAR
STARTCHAR agrave
ENCODING 224
SWIDTH 888 0
DWIDTH 12 0
BBX 10 13 1 0
BITMAP
024000
006000
000000
1BFE40
6401D0
000020
000030
01ABF0
2E5430
900030
800030
A406F0
2FF930
ENDCHAR
STARTCHAR aacute
ENCODING 225
SWIDTH 888 0
DWIDTH 12 0
BBX 10 13 1 0
BITMAP
000900
006400
000000
1BFE40
6401D0
000020
000030
01ABF0
2E5430
900030
800030
A406F0
2FF930
ENDCHAR
STARTCHAR acircumflex
ENCODING 226
SWIDTH 888 0
DWIDTH 12 0
BBX 10 13 1 0
BITMAP
00A400
064900
000000
1BFE40
6401D0
000020
000030
01ABF0
2E5430
900030
800030
A406F0
2FF930
ENDCHAR
STARTCHAR atilde
ENCODING 227
SWIDTH 888 0
DWIDTH 12 0
BBX 10 13 1 0
BITMAP
02D600
066C00
000000
1BFE40
6401D0
000020
000030
01ABF0
2E5430
900030
800030
A406F0
2FF930
ENDCHAR
STARTCHAR adieresis
ENCODING 228
SWIDTH 888 0
DWIDTH 12 0
BBX 10 12 1 0
BITMAP
024C00
000000
1BFE40
6401D0
000020
000030
01ABF0
2E5430
900030
800030
A406F0
2FF930
ENDCHAR
STARTCHAR aring
ENCODING 229
SWIDTH 888 0
DWIDTH 12 0
BBX 10 14 1 0
BITMAP
01F400
024800
01F400
000000
1BFE40
6401D0
000020
000030
01ABF0
2E5430
900030
800030
A406F0
2FF930
ENDCHAR
STARTCHAR ae
ENCODING 230
SWIDTH 1551 0
DWIDTH 22 0
BBX 20 10 1 0
BITMAP
1BFE41BF90
6401D64068
0000380005
0000300002
01ABFFFFFF
2E54300000
9000240000
80002C0000
A406E75018
2FF901BFE4
ENDCHAR
STARTCHAR ccedilla
ENCODING 231
SWIDTH 869 0
DWIDTH 12 0
BBX 11 13 1 -3
BITMAP
06FF90
290064
600000
800000
C00000
C00000
C00000
600000
290064
06FF90
003800
000800
00F800
ENDCHAR
STARTCHAR egrave
ENCODING 232
SWIDTH 910 0
DWIDTH 13 0
BBX 11 13 1 0
BITMAP
024000
006000
000000
06FE40
2901A0
600024
800008
FFFFF8
C00000
D00000
600000
2D0060
06FF90
ENDCHAR
STARTCHAR eacute
ENCODING 233
SWIDTH 910 0
DWIDTH 13 0
BBX 11 13 1 0
BITMAP
000A00
006400
000000
06FE40
2901A0
600024
800008
FFFFF8
C00000
D00000
600000
2D0060
06FF90
ENDCHAR
STARTCHAR ecircumflex
ENCODING 234
SWIDTH 910 0
DWIDTH 13 0
BBX 11 13 1 0
BITMAP
006400
024600
000000
06FE40
2901A0
600024
800008
FFFFF8
C00000
D00000
600000
2D0060
06FF90
ENDCHAR
STARTCHAR edieresis
ENCODING 235
SWIDTH 910 0
DWIDTH 13 0
BBX 11 12 1 0
BITMAP
018900
000000
06FE40
2901A0
600024
800008
FFFFF8
C00000
D00000
600000
2D0060
06FF90
ENDCHAR
STARTCHAR igrave
ENCODING 236
SWIDTH 287 0
DWIDTH 4 0
BBX 4 13 -1 0
BITMAP
64
0A
00
05
05
05
05
05
05
05
05
05
05
ENDCHAR
STARTCHAR iacute
ENCODING 237
SWIDTH 287 0
DWIDTH 4 0
BBX 4 13 1 0
BITMAP
19
60
00
50
50
50
50
50
50
50
50
50
50
ENDCHAR
STARTCHAR icircumflex
ENCODING 238
SWIDTH 287 0
DWIDTH 4 0
BBX 6 13 -1 0
BITMAP
0A40
6090
0000
0500
0500
0500
0500
0500
0500
0500
0500
0500
0500
ENDCHAR
STARTCHAR idieresis
ENCODING 239
SWIDTH 287 0
DWIDTH 4 0
BBX 4 12 0 0
BITMAP
C3
00
14
14
14
14
14
14
14
14
14
14
ENDCHAR
STARTCHAR eth
ENCODING 240
SWIDTH 910 0
DWIDTH 13 0
BBX 12 10 0 0
BITMAP
1FFF90
140068
140009
140006
BFF402
140002
140006
140009
140068
1FFF90
ENDCHAR
STARTCHAR ntilde
ENCODING 241
SWIDTH 933 0
DWIDTH 13 0
BBX 11 13 1 0
BITMAP
01D200
022D00
000000
51BF80
6A4070
740024
500018
500018
500018
500018
500018
500018
500018
ENDCHAR
STARTCHAR ograve
ENCODING 242
SWIDTH 983 0
DWIDTH 14 0
BBX 12 13 1 0
BITMAP
019000
002400
000000
06FF90
290074
600009
C00006
C00002
C00002
C00006
600009
290074
06FF90
ENDCHAR
STARTCHAR oacute
ENCODING 243
SWIDTH 983 0
DWIDTH 14 0
BBX 12 13 1 0
BITMAP
000600
002400
000000
06FF90
290074
600009
C00006
C00002
C00002
C00006
600009
290074
06FF90
ENDCHAR
STARTCHAR ocircumflex
ENCODING 244
SWIDTH 983 0
DWIDTH 14 0
BBX 12 13 1 0
BITMAP
006800
018640
000000
06FF90
290074
600009
C00006
C00002
C00002
C00006
600009
290074
06FF90
ENDCHAR
STARTCHAR otilde
ENCODING 245
SWIDTH 983 0
DWIDTH 14 0
BBX 12 13 1 0
BITMAP
00E540
015E00
000000
06FF90
290074
600009
C00006
C00002
C00002
C00006
600009
290074
06FF90
ENDCHAR
STARTCHAR odieresis
ENCODING 246
SWIDTH 983 0
DWIDTH 14 0
BBX 12 12 1 0
BITMAP
00C600
000000
06FF90
290074
600009
C00006
C00002
C00002
C00006
600009
290074
06FF90
ENDCHAR
STARTCHAR divide
ENCODING 247
SWIDTH 634 0
DWIDTH 9 0
BBX 7 5 1 2
BITMAP
0300
0000
BFF8
0000
0300
ENDCHAR
STARTCHAR oslash
ENCODING 248
SWIDTH 983 0
DWIDTH 14 0
BBX 12 12 1 -1
BITMAP
000024
06FFA0
2901F4
60024D
C00506
C01802
C02002
C09006
614009
2B0074
0AFF90
140000
ENDCHAR
STARTCHAR ugrave
ENCODING 249
SWIDTH 931 0
DWIDTH 13 0
BBX 11 13 1 0
BITMAP
024000
006000
000000
500014
500014
500014
500014
500014
500014
500014
600074
3406A4
0BF914
ENDCHAR
STARTCHAR uacute
ENCODING 250
SWIDTH 931 0
DWIDTH 13 0
BBX 11 13 1 0
BITMAP
000600
002400
000000
500014
500014
500014
500014
500014
500014
500014
600074
3406A4
0BF914
ENDCHAR
STARTCHAR ucircumflex
ENCODING 251
SWIDTH 931 0
DWIDTH 13 0
BBX 11 13 1 0
BITMAP
007400
024600
000000
500014
500014
500014
500014
500014
500014
500014
600074
3406A4
0BF914
ENDCHAR
STARTCHAR udieresis
ENCODING 252
SWIDTH 931 0
DWIDTH 13 0
BBX 11 12 1 0
BITMAP
018900
000000
500014
500014
500014
500014
500014
500014
500014
600074
3406A4
0BF914
ENDCHAR
STARTCHAR yacute
ENCODING 253
SWIDTH 911 0
DWIDTH 13 0
BBX 11 13 1 0
BITMAP
000900
006400
000000
800024
800024
800024
900034
6000B4
280764
0BF920
000070
9406D0
2BFA00
ENDCHAR
STARTCHAR thorn
ENCODING 254
SWIDTH 787 0
DWIDTH 11 0
BBX 9 10 1 0
BITMAP
500000
500000
7FFE00
500680
500080
500080
500180
7FFE00
500000
500000
ENDCHAR
STARTCHAR ydieresis
ENCODING 255
SWIDTH 911 0
DWIDTH 13 0
BBX 11 12 1 0
BITMAP
024C00
000000
800024
800024
800024
900034
6000B4
280764
0BF920
000070
9406D0
2BFA00
ENDCHAR
STARTCHAR Amacron
ENCODING 256
SWIDTH 812 0
DWIDTH 11 0
BBX 11 12 0 0
BITMAP
01FE00
000000
003400
009C00
00C900
024300
030240
0A01C0
0C0090
1FFFF0
340024
600018
ENDCHAR
STARTCHAR amacron
ENCODING 257
SWIDTH 888 0
DWIDTH 12 0
BBX 10 12 1 0
BITMAP
02FC00
000000
1BFE40
6401D0
000020
000030
01ABF0
2E5430
900030
800030
A406F0
2FF930
ENDCHAR
STARTCHAR Abreve
ENCODING 258
SWIDTH 812 0
DWIDTH 11 0
BBX 11 13 0 0
BITMAP
024600
00BD00
000000
003400
009C00
00C900
024300
030240
0A01C0
0C0090
1FFFF0
340024
600018
ENDCHAR
STARTCHAR abreve
ENCODING 259
SWIDTH 888 0
DWIDTH 12 0
BBX 10 13 1 0
BITMAP
020900
01F800
000000
1BFE40
6401D0
000020
000030
01ABF0
2E5430
900030
800030
A406F0
2FF930
ENDCHAR
STARTCHAR Aogonek
ENCODING 260
SWIDTH 812 0
DWIDTH 11 0
BBX 12 12 0 -2
BITMAP
003400
009C00
00C900
024300
030240
0A01C0
0C0090
1FFFF0
340024
600008
000024
00002F
ENDCHAR
STARTCHAR aogonek
ENCODING 261
SWIDTH 888 0
DWIDTH 12 0
BBX 11 12 1 -2
BITMAP
1BFE40
6401D0
000020
000030
01ABF0
2E5430
900030
800030
A405B0
2FF930
000090
0000BC
ENDCHAR
STARTCHAR Cacute
ENCODING 262
SWIDTH 869 0
DWIDTH 12 0
BBX 11 13 1 0
BITMAP
000600
002400
000000
06FF90
290064
600000
800000
C00000
C00000
C00000
600000
290064
06FF90
ENDCHAR
STARTCHAR cacute
ENCODING 263
SWIDTH 869 0
DWIDTH 12 0
BBX 11 13 1 0
BITMAP
000600
002400
000000
06FF90
290064
600000
800000
C00000
C00000
C00000
600000
290064
06FF90
ENDCHAR
STARTCHAR Ccircumflex
ENCODING 264
SWIDTH 869 0
DWIDTH 12 0
BBX 11 13 1 0
BITMAP
006800
018640
000000
06FF90
290064
600000
800000
C00000
C00000
C00000
600000
290064
06FF90
ENDCHAR
STARTCHAR ccircumflex
ENCODING 265
SWIDTH 869 0
DWIDTH 12 0
BBX 11 13 1 0
BITMAP
006800
018640
000000
06FF90
290064
600000
800000
C00000
C00000
C00000
600000
290064
06FF90
ENDCHAR
STARTCHAR Cdotaccent
ENCODING 266
SWIDTH 869 0
DWIDTH 12 0
BBX 11 12 1 0
BITMAP
002400
000000
06FF90
290064
600000
800000
C00000
C00000
C00000
600000
290064
06FF90
ENDCHAR
STARTCHAR cdotaccent
ENCODING 267
SWIDTH 869 0
DWIDTH 12 0
BBX 11 12 1 0
BITMAP
002400
000000
06FF90
290064
600000
800000
C00000
C00000
C00000
600000
290064
06FF90
ENDCHAR
STARTCHAR Ccaron
ENCODING 268
SWIDTH 869 0
DWIDTH 12 0
BBX 11 13 1 0
BITMAP
018640
006800
000000
06FF90
290064
600000
800000
C00000
C00000
C00000
600000
290064
06FF90
ENDCHAR
STARTCHAR ccaron
ENCODING 269
SWIDTH 869 0
DWIDTH 12 0
BBX 11 13 1 0
BITMAP
018640
006800
000000
06FF90
290064
600000
800000
C00000
C00000
C00000
600000
290064
06FF90
ENDCHAR
STARTCHAR Dcaron
ENCODING 270
SWIDTH 910 0
DWIDTH 13 0
BBX 11 13 1 0
BITMAP
091800
029000
000000
7FFE40
5001A0
500024
500018
500008
500008
500018
500024
5001A0
7FFE40
ENDCHAR
STARTCHAR dcaron
ENCODING 271
SWIDTH 910 0
DWIDTH 13 0
BBX 11 13 1 0
BITMAP
091800
029000
000000
7FFE40
5001A0
500024
500018
500008
500008
500018
500024
5001A0
7FFE40
ENDCHAR
STARTCHAR Dcroat
ENCODING 272
SWIDTH 910 0
DWIDTH 13 0
BBX 12 10 0 0
BITMAP
1FFF90
140068
140009
140006
BFF402
140002
140006
140009
140068
1FFF90
ENDCHAR
STARTCHAR dcroat
ENCODING 273
SWIDTH 910 0
DWIDTH 13 0
BBX 12 10 0 0
BITMAP
1FFF90
140068
140009
140006
BFF402
140002
140006
140009
140068
1FFF90
ENDCHAR
STARTCHAR Emacron
ENCODING 274
SWIDTH 754 0
DWIDTH 11 0
BBX 9 12 1 0
BITMAP
07F400
000000
7FFF40
600000
600000
600000
7FFF00
600000
600000
600000
600000
7FFF80
ENDCHAR
STARTCHAR emacron
ENCODING 275
SWIDTH 910 0
DWIDTH 13 0
BBX 11 12 1 0
BITMAP
01FD00
000000
06FE40
2901A0
600024
800008
FFFFF8
C00000
D00000
600000
2D0060
06FF90
ENDCHAR
STARTCHAR Ebreve
ENCODING 276
SWIDTH 754 0
DWIDTH 11 0
BBX 9 13 1 0
BITMAP
091800
06E000
000000
7FFF40
600000
600000
600000
7FFF00
600000
600000
600000
600000
7FFF80
ENDCHAR
STARTCHAR ebreve
ENCODING 277
SWIDTH 910 0
DWIDTH 13 0
BBX 11 13 1 0
BITMAP
024600
01B800
000000
06FE40
2901A0
600024
800008
FFFFF8
C00000
D00000
600000
2D0060
06FF90
ENDCHAR
STARTCHAR Edotaccent
ENCODING 278
SWIDTH 754 0
DWIDTH 11 0
BBX 9 12 1 0
BITMAP
00C000
000000
7FFF40
600000
600000
600000
7FFF00
600000
600000
600000
600000
7FFF80
ENDCHAR
STARTCHAR edotaccent
ENCODING 279
SWIDTH 910 0
DWIDTH 13 0
BBX 11 12 1 0
BITMAP
003000
000000
06FE40
2901A0
600024
800008
FFFFF8
C00000
D00000
600000
2D0060
06FF90
ENDCHAR
STARTCHAR Eogonek
ENCODING 280
SWIDTH 754 0
DWIDTH 11 0
BBX 9 12 1 -2
BITMAP
7FFF40
600000
600000
600000
7FFF00
600000
600000
600000
600000
7FFF80
001800
001F80
ENDCHAR
STARTCHAR eogonek
ENCODING 281
SWIDTH 910 0
DWIDTH 13 0
BBX 11 12 1 -2
BITMAP
06FE40
2901A0
600024
800008
FFFFF8
C00000
D00000
600000
2D0060
06FFD0
000180
0000F8
ENDCHAR
STARTCHAR Ecaron
ENCODING 282
SWIDTH 754 0
DWIDTH 11 0
BBX 9 13 1 0
BITMAP
091800
019000
000000
7FFF40
600000
600000
600000
7FFF00
600000
600000
600000
600000
7FFF80
ENDCHAR
STARTCHAR ecaron
ENCODING 283
SWIDTH 910 0
DWIDTH 13 0
BBX 11 13 1 0
BITMAP
024600
006400
000000
06FE40
2901A0
600024
800008
FFFFF8
C00000
D00000
600000
2D0060
06FF90
ENDCHAR
STARTCHAR Gcircumflex
ENCODING 284
SWIDTH 910 0
DWIDTH 13 0
BBX 11 13 1 0
BITMAP
006800
018640
000000
06FF90
2D0064
600000
800000
C00000
C00FF8
C00018
600018
2D0028
06FFA4
ENDCHAR
STARTCHAR gcircumflex
ENCODING 285
SWIDTH 910 0
DWIDTH 13 0
BBX 11 13 1 0
BITMAP
006800
018640
000000
06FF90
2D0064
600000
800000
C00000
C00FF8
C00018
600018
2D0028
06FFA4
ENDCHAR
STARTCHAR Gbreve
ENCODING 286
SWIDTH 910 0
DWIDTH 13 0
BBX 11 13 1 0
BITMAP
018200
00BD00
000000
06FF90
2D0064
600000
800000
C00000
C00FF8
C00018
600018
2D0028
06FFA4
ENDCHAR
STARTCHAR gbreve
ENCODING 287
SWIDTH 910 0
DWIDTH 13 0
BBX 11 13 1 0
BITMAP
018200
00BD00
000000
06FF90
2D0064
600000
800000
C00000
C00FF8
C00018
600018
2D0028
06FFA4
ENDCHAR
STARTCHAR Gdotaccent
ENCODING 288
SWIDTH 910 0
DWIDTH 13 0
BBX 11 12 1 0
BITMAP
002400
000000
06FF90
2D0064
600000
800000
C00000
C00FF8
C00018
600018
2D0028
06FFA4
ENDCHAR
STARTCHAR gdotaccent
ENCODING 289
SWIDTH 910 0
DWIDTH 13 0
BBX 11 12 1 0
BITMAP
002400
000000
06FF90
2D0064
600000
800000
C00000
C00FF8
C00018
600018
2D0028
06FFA4
ENDCHAR
STARTCHAR Gcommaaccent
ENCODING 290
SWIDTH 910 0
DWIDTH 13 0
BBX 11 13 1 -3
BITMAP
06FF90
2D0064
600000
800000
C00000
C00FF8
C00018
600018
2D0028
06FFA4
000000
001800
002400
ENDCHAR
STARTCHAR gcommaaccent
ENCODING 291
SWIDTH 910 0
DWIDTH 13 0
BBX 11 13 1 -3
BITMAP
06FF90
2D0064
600000
800000
C00000
C00FF8
C00018
600018
2D0028
06FFA4
000000
001800
002400
ENDCHAR
STARTCHAR Hcircumflex
ENCODING 292
SWIDTH 949 0
DWIDTH 13 0
BBX 11 13 1 0
BITMAP
006800
024600
000000
500008
500008
500008
500008
7FFFF8
500008
500008
500008
500008
500008
ENDCHAR
STARTCHAR hcircumflex
ENCODING 293
SWIDTH 949 0
DWIDTH 13 0
BBX 11 13 1 0
BITMAP
006800
024600
000000
500008
500008
500008
500008
7FFFF8
500008
500008
500008
500008
500008
ENDCHAR
STARTCHAR Hbar
ENCODING 294
SWIDTH 949 0
DWIDTH 13 0
BBX 13 10 0 0
BITMAP
14000200
14000200
BFFFFFC0
14000200
1FFFFE00
14000200
14000200
14000200
14000200
14000200
ENDCHAR
STARTCHAR hbar
ENCODING 295
SWIDTH 949 0
DWIDTH 13 0
BBX 13 10 0 0
BITMAP
14000200
14000200
BFFFFFC0
14000200
1FFFFE00
14000200
14000200
14000200
14000200
14000200
ENDCHAR
STARTCHAR Itilde
ENCODING 296
SWIDTH 287 0
DWIDTH 4 0
BBX 6 13 -1 0
BITMAP
2950
56C0
0000
0500
0500
0500
0500
0500
0500
0500
0500
0500
0500
ENDCHAR
STARTCHAR itilde
ENCODING 297
SWIDTH 287 0
DWIDTH 4 0
BBX 6 13 -1 0
BITMAP
2950
56C0
0000
0500
0500
0500
0500
0500
0500
0500
0500
0500
0500
ENDCHAR
STARTCHAR Imacron
ENCODING 298
SWIDTH 287 0
DWIDTH 4 0
BBX 4 12 0 0
BITMAP
FF
00
14
14
14
14
14
14
14
14
14
14
ENDCHAR
STARTCHAR imacron
ENCODING 299
SWIDTH 287 0
DWIDTH 4 0
BBX 4 12 0 0
BITMAP
FF
00
14
14
14
14
14
14
14
14
14
14
ENDCHAR
STARTCHAR Ibreve
ENCODING 300
SWIDTH 287 0
DWIDTH 4 0
BBX 6 13 -1 0
BITMAP
6090
1F40
0000
0500
0500
0500
0500
0500
0500
0500
0500
0500
0500
ENDCHAR
STARTCHAR ibreve
ENCODING 301
SWIDTH 287 0
DWIDTH 4 0
BBX 6 13 -1 0
BITMAP
6090
1F40
0000
0500
0500
0500
0500
0500
0500
0500
0500
0500
0500
ENDCHAR
STARTCHAR Iogonek
ENCODING 302
SWIDTH 287 0
DWIDTH 4 0
BBX 4 12 0 -2
BITMAP
14
14
14
14
14
14
14
14
14
14
50
7D
ENDCHAR
STARTCHAR iogonek
ENCODING 303
SWIDTH 287 0
DWIDTH 4 0
BBX 4 12 0 -2
BITMAP
14
14
14
14
14
14
14
14
14
14
50
7D
ENDCHAR
STARTCHAR Idotaccent
ENCODING 304
SWIDTH 287 0
DWIDTH 4 0
BBX 2 12 1 0
BITMAP
A0
00
50
50
50
50
50
50
50
50
50
50
ENDCHAR
STARTCHAR dotlessi
ENCODING 305
SWIDTH 287 0
DWIDTH 4 0
BBX 2 10 1 0
BITMAP
50
50
50
50
50
50
50
50
50
50
ENDCHAR
STARTCHAR IJ
ENCODING 306
SWIDTH 877 0
DWIDTH 12 0
BBX 10 10 1 0
BITMAP
500020
500020
500020
500020
500020
500020
500020
500060
5001D0
53FE40
ENDCHAR
STARTCHAR ij
ENCODING 307
SWIDTH 877 0
DWIDTH 12 0
BBX 10 10 1 0
BITMAP
500020
500020
500020
500020
500020
500020
500020
500060
5001D0
53FE40
ENDCHAR
STARTCHAR Jcircumflex
ENCODING 308
SWIDTH 590 0
DWIDTH 8 0
BBX 9 13 0 0
BITMAP
002900
009180
000000
000800
000800
000800
000800
000800
000800
000800
001800
007400
FF9000
ENDCHAR
STARTCHAR jcircumflex
ENCODING 309
SWIDTH 590 0
DWIDTH 8 0
BBX 9 13 0 0
BITMAP
002900
009180
000000
000800
000800
000800
000800
000800
000800
000800
001800
007400
FF9000
ENDCHAR
STARTCHAR Kcommaaccent
ENCODING 310
SWIDTH 806 0
DWIDTH 11 0
BBX 10 13 1 -3
BITMAP
500180
500900
506400
528000
6D0000
6A0000
519000
502800
500A00
500190
000000
008000
008000
ENDCHAR
STARTCHAR kcommaaccent
ENCODING 311
SWIDTH 867 0
DWIDTH 12 0
BBX 10 13 1 -3
BITMAP
500060
500090
500240
506900
7FE400
505E00
500280
5000A0
500030
500020
000000
006000
009000
ENDCHAR
STARTCHAR kgreenlandic
ENCODING 312
SWIDTH 867 0
DWIDTH 12 0
BBX 10 10 1 0
BITMAP
500060
500090
500240
506900
7FE400
505E00
500280
5000A0
500030
500020
ENDCHAR
STARTCHAR Lacute
ENCODING 313
SWIDTH 701 0
DWIDTH 10 0
BBX 9 13 1 0
BITMAP
190000
600000
000000
500000
500000
500000
500000
500000
500000
500000
500000
500000
7FFF40
ENDCHAR
STARTCHAR lacute
ENCODING 314
SWIDTH 709 0
DWIDTH 10 0
BBX 9 13 1 0
BITMAP
190000
600000
000000
500000
500000
500000
500000
500000
500000
500000
600000
340000
1BFF80
ENDCHAR
STARTCHAR Lcommaaccent
ENCODING 315
SWIDTH 701 0
DWIDTH 10 0
BBX 9 13 1 -3
BITMAP
500000
500000
500000
500000
500000
500000
500000
500000
500000
7FFF40
000000
00C000
008000
ENDCHAR
STARTCHAR lcommaaccent
ENCODING 316
SWIDTH 709 0
DWIDTH 10 0
BBX 9 13 1 -3
BITMAP
500000
500000
500000
500000
500000
500000
500000
600000
340000
1BFF80
000000
009000
008000
ENDCHAR
STARTCHAR Lcaron
ENCODING 317
SWIDTH 701 0
DWIDTH 10 0
BBX 9 10 1 0
BITMAP
502400
502000
500000
500000
500000
500000
500000
500000
500000
7FFF40
ENDCHAR
STARTCHAR lcaron
ENCODING 318
SWIDTH 709 0
DWIDTH 10 0
BBX 9 10 1 0
BITMAP
502400
502000
500000
500000
500000
500000
500000
600000
340000
1BFF80
ENDCHAR
STARTCHAR Ldot
ENCODING 319
SWIDTH 701 0
DWIDTH 10 0
BBX 9 10 1 0
BITMAP
500000
500000
500000
500000
500000
502400
500000
500000
500000
7FFF40
ENDCHAR
STARTCHAR ldotaccent
ENCODING 320
SWIDTH 709 0
DWIDTH 10 0
BBX 9 10 1 0
BITMAP
500000
500000
500000
500000
500000
502800
500000
600000
340000
1BFF80
ENDCHAR
STARTCHAR Lslash
ENCODING 321
SWIDTH 701 0
DWIDTH 10 0
BBX 10 10 0 0
BITMAP
140000
140000
140000
158000
2E0000
A40000
140000
140000
140000
1FFFD0
ENDCHAR
STARTCHAR lslash
ENCODING 322
SWIDTH 709 0
DWIDTH 10 0
BBX 10 10 0 0
BITMAP
140000
140000
140000
158000
2E0000
A40000
140000
180000
0D0000
06FFE0
ENDCHAR
STARTCHAR Nacute
ENCODING 323
SWIDTH 936 0
DWIDTH 13 0
BBX 11 13 1 0
BITMAP
000600
002400
000000
700018
680018
560018
518018
506018
502818
500918
500258
5000A8
500028
ENDCHAR
STARTCHAR nacute
ENCODING 324
SWIDTH 933 0
DWIDTH 13 0
BBX 11 13 1 0
BITMAP
000A00
006400
000000
51BF80
6A4070
740024
500018
500018
500018
500018
500018
500018
500018
ENDCHAR
STARTCHAR Ncommaaccent
ENCODING 325
SWIDTH 936 0
DWIDTH 13 0
BBX 11 13 1 -3
BITMAP
700018
680018
560018
518018
506018
502818
500918
500258
5000A8
500028
000000
003000
002000
ENDCHAR
STARTCHAR ncommaaccent
ENCODING 326
SWIDTH 933 0
DWIDTH 13 0
BBX 11 13 1 -3
BITMAP
51BF80
6A4070
740024
500018
500018
500018
500018
500018
500018
500018
000000
003000
002000
ENDCHAR
STARTCHAR Ncaron
ENCODING 327
SWIDTH 936 0
DWIDTH 13 0
BBX 11 13 1 0
BITMAP
024600
007400
000000
700018
680018
560018
518018
506018
502818
500918
500258
5000A8
500028
ENDCHAR
STARTCHAR ncaron
ENCODING 328
SWIDTH 933 0
DWIDTH 13 0
BBX 11 13 1 0
BITMAP
024600
006400
000000
51BF80
6A4070
740024
500018
500018
500018
500018
500018
500018
500018
ENDCHAR
STARTCHAR napostrophe
ENCODING 329
SWIDTH 1025 0
DWIDTH 14 0
BBX 13 10 0 0
BITMAP
9206F900
82B90740
03800180
02000080
02000080
02000080
02000080
02000080
02000080
02000080
ENDCHAR
STARTCHAR Eng
ENCODING 330
SWIDTH 936 0
DWIDTH 13 0
BBX 11 10 1 0
BITMAP
740018
690018
528018
506018
501918
500258
5000A8
500024
500070
50BF90
ENDCHAR
STARTCHAR eng
ENCODING 331
SWIDTH 933 0
DWIDTH 13 0
BBX 11 10 1 0
BITMAP
51BF80
6A4070
740024
500018
500018
500018
500018
500014
500070
50BF90
ENDCHAR
STARTCHAR Omacron
ENCODING 332
SWIDTH 983 0
DWIDTH 14 0
BBX 12 12 1 0
BITMAP
00FE00
000000
06FF90
290074
600009
C00006
C00002
C00002
C00006
600009
290074
06FF90
ENDCHAR
STARTCHAR omacron
ENCODING 333
SWIDTH 983 0
DWIDTH 14 0
BBX 12 12 1 0
BITMAP
00FE00
000000
06FF90
290074
600009
C00006
C00002
C00002
C00006
600009
290074
06FF90
ENDCHAR
STARTCHAR Obreve
ENCODING 334
SWIDTH 983 0
DWIDTH 14 0
BBX 12 13 1 0
BITMAP
018200
00BD00
000000
06FF90
290074
600009
C00006
C00002
C00002
C00006
600009
290074
06FF90
ENDCHAR
STARTCHAR obreve
ENCODING 335
SWIDTH 983 0
DWIDTH 14 0
BBX 12 13 1 0
BITMAP
018200
00BD00
000000
06FF90
290074
600009
C00006
C00002
C00002
C00006
600009
290074
06FF90
ENDCHAR
STARTCHAR Ohungarumlaut
ENCODING 336
SWIDTH 983 0
DWIDTH 14 0
BBX 12 13 1 0
BITMAP
002180
009600
000000
06FF90
290074
600009
C00006
C00002
C00002
C00006
600009
290074
06FF90
ENDCHAR
STARTCHAR ohungarumlaut
ENCODING 337
SWIDTH 983 0
DWIDTH 14 0
BBX 12 13 1 0
BITMAP
002180
009600
000000
06FF90
290074
600009
C00006
C00002
C00002
C00006
600009
290074
06FF90
ENDCHAR
STARTCHAR OE
ENCODING 338
SWIDTH 1338 0
DWIDTH 19 0
BBX 17 10 1 0
BITMAP
06FFFFFF80
2900600000
6000600000
8000600000
C0007FFF40
C000600000
C000600000
6000600000
2900600000
06FFFFFF80
ENDCHAR
STARTCHAR oe
ENCODING 339
SWIDTH 1688 0
DWIDTH 24 0
BBX 22 10 1 0
BITMAP
06FF901BF900
290074640680
60000A800090
C00007000020
C00003FFFFE0
C00003000000
C00007400000
60000A800000
290074B50180
06FF901BFE40
ENDCHAR
STARTCHAR Racute
ENCODING 340
SWIDTH 833 0
DWIDTH 12 0
BBX 10 13 1 0
BITMAP
002400
019000
000000
7FFE00
5001C0
500090
500090
5001C0
7FFE00
500900
500240
500080
500060
ENDCHAR
STARTCHAR racute
ENCODING 341
SWIDTH 609 0
DWIDTH 9 0
BBX 8 13 1 0
BITMAP
0060
0240
0000
51BD
5A40
7400
6000
5000
5000
5000
5000
5000
5000
ENDCHAR
STARTCHAR Rcommaaccent
ENCODING 342
SWIDTH 833 0
DWIDTH 12 0
BBX 10 13 1 -3
BITMAP
7FFE00
5001C0
500090
500090
5001C0
7FFE00
500900
500240
500080
500060
000000
009000
008000
ENDCHAR
STARTCHAR rcommaaccent
ENCODING 343
SWIDTH 609 0
DWIDTH 9 0
BBX 8 13 1 -3
BITMAP
51BD
5A40
7400
6000
5000
5000
5000
5000
5000
5000
0000
6000
9000
ENDCHAR
STARTCHAR Rcaron
ENCODING 344
SWIDTH 833 0
DWIDTH 12 0
BBX 10 13 1 0
BITMAP
091800
029000
000000
7FFE00
5001C0
500090
500090
5001C0
7FFE00
500900
500240
500080
500060
ENDCHAR
STARTCHAR rcaron
ENCODING 345
SWIDTH 609 0
DWIDTH 9 0
BBX 8 13 1 0
BITMAP
2460
0680
0000
51BD
5A40
7400
6000
5000
5000
5000
5000
5000
5000
ENDCHAR
STARTCHAR Sacute
ENCODING 346
SWIDTH 787 0
DWIDTH 11 0
BBX 9 13 1 0
BITMAP
002800
019000
000000
1BF900
A40600
800000
600000
1A9000
006A00
000180
0000C0
940680
2BF900
ENDCHAR
STARTCHAR sacute
ENCODING 347
SWIDTH 787 0
DWIDTH 11 0
BBX 9 13 1 0
BITMAP
002800
019000
000000
1BF900
A40600
800000
600000
1A9000
006A00
000180
0000C0
940680
2BF900
ENDCHAR
STARTCHAR Scircumflex
ENCODING 348
SWIDTH 787 0
DWIDTH 11 0
BBX 9 13 1 0
BITMAP
01D000
091800
000000
1BF900
A40600
800000
600000
1A9000
006A00
000180
0000C0
940680
2BF900
ENDCHAR
STARTCHAR scircumflex
ENCODING 349
SWIDTH 787 0
DWIDTH 11 0
BBX 9 13 1 0
BITMAP
01D000
091800
000000
1BF900
A40600
800000
600000
1A9000
006A00
000180
0000C0
940680
2BF900
ENDCHAR
STARTCHAR Scedilla
ENCODING 350
SWIDTH 787 0
DWIDTH 11 0
BBX 9 13 1 -3
BITMAP
1BF900
A40600
800000
600000
1A9000
006A00
000180
0000C0
940680
2BF900
00E000
002000
03E000
ENDCHAR
STARTCHAR scedilla
ENCODING 351
SWIDTH 787 0
DWIDTH 11 0
BBX 9 13 1 -3
BITMAP
1BF900
A40600
800000
600000
1A9000
006A00
000180
0000C0
940680
2BF900
00E000
002000
03E000
ENDCHAR
STARTCHAR Scaron
ENCODING 352
SWIDTH 787 0
DWIDTH 11 0
BBX 9 13 1 0
BITMAP
091800
019000
000000
1BF900
A40600
800000
600000
1A9000
006A00
000180
0000C0
940680
2BF900
ENDCHAR
STARTCHAR scaron
ENCODING 353
SWIDTH 787 0
DWIDTH 11 0
BBX 9 13 1 0
BITMAP
091800
019000
000000
1BF900
A40600
800000
600000
1A9000
006A00
000180
0000C0
940680
2BF900
ENDCHAR
STARTCHAR Tcommaaccent
ENCODING 354
SWIDTH 708 0
DWIDTH 10 0
BBX 10 13 0 -3
BITMAP
BFFFE0
005000
005000
005000
005000
005000
005000
005000
005000
005000
000000
005000
008000
ENDCHAR
STARTCHAR tcommaaccent
ENCODING 355
SWIDTH 708 0
DWIDTH 10 0
BBX 10 13 0 -3
BITMAP
BFFFE0
005000
005000
005000
005000
005000
005000
005000
005000
005000
000000
005000
008000
ENDCHAR
STARTCHAR Tcaron
ENCODING 356
SWIDTH 708 0
DWIDTH 10 0
BBX 10 13 0 0
BITMAP
060900
01A000
000000
BFFFE0
005000
005000
005000
005000
005000
005000
005000
005000
005000
ENDCHAR
STARTCHAR tcaron
ENCODING 357
SWIDTH 708 0
DWIDTH 10 0
BBX 10 13 0 0
BITMAP
060900
01A000
000000
BFFFE0
005000
005000
005000
005000
005000
005000
005000
005000
005000
ENDCHAR
STARTCHAR Tbar
ENCODING 358
SWIDTH 708 0
DWIDTH 10 0
BBX 10 10 0 0
BITMAP
BFFFE0
005000
005000
005000
2FFF80
005000
005000
005000
005000
005000
ENDCHAR
STARTCHAR tbar
ENCODING 359
SWIDTH 708 0
DWIDTH 10 0
BBX 10 10 0 0
BITMAP
BFFFE0
005000
005000
005000
2FFF80
005000
005000
005000
005000
005000
ENDCHAR
STARTCHAR Utilde
ENCODING 360
SWIDTH 891 0
DWIDTH 12 0
BBX 10 13 1 0
BITMAP
02D200
022D00
000000
900030
900030
900030
900030
900030
900030
500030
600070
3901D0
0AFE40
ENDCHAR
STARTCHAR utilde
ENCODING 361
SWIDTH 931 0
DWIDTH 13 0
BBX 11 13 1 0
BITMAP
01E200
022D00
000000
500014
500014
500014
500014
500014
500014
500014
600074
3406A4
0BF914
ENDCHAR
STARTCHAR Umacron
ENCODING 362
SWIDTH 891 0
DWIDTH 12 0
BBX 10 12 1 0
BITMAP
02FC00
000000
900030
900030
900030
900030
900030
900030
500030
600070
3901D0
0AFE40
ENDCHAR
STARTCHAR umacron
ENCODING 363
SWIDTH 931 0
DWIDTH 13 0
BBX 11 12 1 0
BITMAP
01FD00
000000
500014
500014
500014
500014
500014
500014
500014
600074
3406A4
0BF914
ENDCHAR
STARTCHAR Ubreve
ENCODING 364
SWIDTH 891 0
DWIDTH 12 0
BBX 10 13 1 0
BITMAP
024900
01F800
000000
900030
900030
900030
900030
900030
900030
500030
600070
3901D0
0AFE40
ENDCHAR
STARTCHAR ubreve
ENCODING 365
SWIDTH 931 0
DWIDTH 13 0
BBX 11 13 1 0
BITMAP
024600
00B800
000000
500014
500014
500014
500014
500014
500014
500014
600074
3406A4
0BF914
ENDCHAR
STARTCHAR Uring
ENCODING 366
SWIDTH 891 0
DWIDTH 12 0
BBX 10 14 1 0
BITMAP
01F800
014C00
01F800
000000
900030
900030
900030
900030
900030
900030
500030
600070
3901D0
0AFE40
ENDCHAR
STARTCHAR uring
ENCODING 367
SWIDTH 931 0
DWIDTH 13 0
BBX 11 14 1 0
BITMAP
00B800
018900
00B800
000000
500014
500014
500014
500014
500014
500014
500014
600074
3406A4
0BF914
ENDCHAR
STARTCHAR Uhungarumlaut
ENCODING 368
SWIDTH 891 0
DWIDTH 12 0
BBX 10 13 1 0
BITMAP
005200
014800
000000
900030
900030
900030
900030
900030
900030
500030
600070
3901D0
0AFE40
ENDCHAR
STARTCHAR uhungarumlaut
ENCODING 369
SWIDTH 931 0
DWIDTH 13 0
BBX 11 13 1 0
BITMAP
006200
018900
000000
500014
500014
500014
500014
500014
500014
500014
600074
3406A4
0BF914
ENDCHAR
STARTCHAR Uogonek
ENCODING 370
SWIDTH 891 0
DWIDTH 12 0
BBX 10 12 1 -2
BITMAP
900030
900030
900030
900030
900030
900030
500030
600070
3901D0
0BFE40
008000
00BC00
ENDCHAR
STARTCHAR uogonek
ENCODING 371
SWIDTH 931 0
DWIDTH 13 0
BBX 12 12 1 -2
BITMAP
500014
500014
500014
500014
500014
500014
500014
600074
3406A4
0BF914
000050
00007D
ENDCHAR
STARTCHAR Wcircumflex
ENCODING 372
SWIDTH 1266 0
DWIDTH 18 0
BBX 17 13 0 0
BITMAP
0001A00000
0006190000
0000000000
6000E000C0
3001B00180
2402640240
0803180300
0806080600
0609050800
0308021800
0254022400
01A001B000
00E000E000
ENDCHAR
STARTCHAR wcircumflex
ENCODING 373
SWIDTH 1266 0
DWIDTH 18 0
BBX 17 13 0 0
BITMAP
0001A00000
0006190000
0000000000
6000E000C0
3001B00180
2402640240
0803180300
0806080600
0609050800
0308021800
0254022400
01A001B000
00E000E000
ENDCHAR
STARTCHAR Ycircumflex
ENCODING 374
SWIDTH 763 0
DWIDTH 11 0
BBX 9 13 1 0
BITMAP
029000
091800
000000
800180
600200
240900
091400
026000
01C000
008000
008000
008000
008000
ENDCHAR
STARTCHAR ycircumflex
ENCODING 375
SWIDTH 911 0
DWIDTH 13 0
BBX 11 13 1 0
BITMAP
00A400
064500
000000
800024
800024
800024
900034
6000B4
280764
0BF920
000070
9406D0
2BFA00
ENDCHAR
STARTCHAR Ydieresis
ENCODING 376
SWIDTH 763 0
DWIDTH 11 0
BBX 9 12 1 0
BITMAP
092400
000000
800180
600200
240900
091400
026000
01C000
008000
008000
008000
008000
ENDCHAR
STARTCHAR Zacute
ENCODING 377
SWIDTH 728 0
DWIDTH 10 0
BBX 9 13 1 0
BITMAP
002400
019000
000000
BFFF00
000900
001800
006000
018000
020000
090000
240000
600000
FFFF40
ENDCHAR
STARTCHAR zacute
ENCODING 378
SWIDTH 728 0
DWIDTH 10 0
BBX 9 13 1 0
BITMAP
002400
019000
000000
BFFF00
000900
001800
006000
018000
020000
090000
240000
600000
FFFF40
ENDCHAR
STARTCHAR Zdotaccent
ENCODING 379
SWIDTH 728 0
DWIDTH 10 0
BBX 9 12 1 0
BITMAP
018000
000000
BFFF00
000900
001800
006000
018000
020000
090000
240000
600000
FFFF40
ENDCHAR
STARTCHAR zdotaccent
ENCODING 380
SWIDTH 728 0
DWIDTH 10 0
BBX 9 12 1 0
BITMAP
018000
000000
BFFF00
000900
001800
006000
018000
020000
090000
240000
600000
FFFF40
ENDCHAR
STARTCHAR Zcaron
ENCODING 381
SWIDTH 728 0
DWIDTH 10 0
BBX 9 13 1 0
BITMAP
191400
029000
000000
BFFF00
000900
001800
006000
018000
020000
090000
240000
600000
FFFF40
ENDCHAR
STARTCHAR zcaron
ENCODING 382
SWIDTH 728 0
DWIDTH 10 0
BBX 9 13 1 0
BITMAP
191400
029000
000000
BFFF00
000900
001800
006000
018000
020000
090000
240000
600000
FFFF40
ENDCHAR
STARTCHAR florin
ENCODING 402
SWIDTH 835 0
DWIDTH 12 0
BBX 12 10 0 0
BITMAP
0002FD
000600
000800
01FFC0
001800
002400
003000
006000
01D000
BF4000
ENDCHAR
STARTCHAR AEacute
ENCODING 508
SWIDTH 1172 0
DWIDTH 16 0
BBX 16 13 0 0
BITMAP
00000280
00001900
00000000
000FFFFD
00264000
00724000
00D24000
0282FFFC
03024000
0A024000
1FFF4000
34024000
A002FFFD
ENDCHAR
STARTCHAR aeacute
ENCODING 509
SWIDTH 1551 0
DWIDTH 22 0
BBX 20 13 1 0
BITMAP
0000064000
0000180000
0000000000
1BFE41BF90
6401D64068
0000380005
0000300002
01ABFFFFFF
2E54300000
9000240000
80002C0000
A406E75018
2FF901BFE4
ENDCHAR
STARTCHAR Oslashacute
ENCODING 510
SWIDTH 983 0
DWIDTH 14 0
BBX 12 14 1 -1
BITMAP
000600
002800
000024
06FFA0
2901F4
60024D
C00506
C01802
C02002
C09006
614009
2B0074
0AFF90
140000
ENDCHAR
STARTCHAR oslashacute
ENCODING 511
SWIDTH 983 0
DWIDTH 14 0
BBX 12 14 1 -1
BITMAP
000600
002800
000024
06FFA0
2901F4
60024D
C00506
C01802
C02002
C09006
614009
2B0074
0AFF90
140000
ENDCHAR
STARTCHAR dotlessj
ENCODING 567
SWIDTH 590 0
DWIDTH 8 0
BBX 7 10 0 0
BITMAP
0008
0008
0008
0008
0008
0008
0008
0018
0074
FF90
ENDCHAR
STARTCHAR circumflex
ENCODING 710
SWIDTH 527 0
DWIDTH 7 0
BBX 5 2 1 9
BITMAP
1A00
9180
ENDCHAR
STARTCHAR caron
ENCODING 711
SWIDTH 527 0
DWIDTH 7 0
BBX 5 2 1 9
BITMAP
9180
1A00
ENDCHAR
STARTCHAR breve
ENCODING 728
SWIDTH 527 0
DWIDTH 7 0
BBX 5 2 1 9
BITMAP
9180
2F40
ENDCHAR
STARTCHAR dotaccent
ENCODING 729
SWIDTH 527 0
DWIDTH 7 0
BBX 2 1 3 9
BITMAP
90
ENDCHAR
STARTCHAR ring
ENCODING 730
SWIDTH 527 0
DWIDTH 7 0
BBX 4 3 2 9
BITMAP
B8
85
B8
ENDCHAR
STARTCHAR ogonek
ENCODING 731
SWIDTH 527 0
DWIDTH 7 0
BBX 3 2 2 -2
BITMAP
50
BC
ENDCHAR
STARTCHAR tilde
ENCODING 732
SWIDTH 527 0
DWIDTH 7 0
BBX 5 2 1 9
BITMAP
7880
8780
ENDCHAR
STARTCHAR hungarumlaut
ENCODING 733
SWIDTH 527 0
DWIDTH 7 0
BBX 5 2 2 9
BITMAP
2240
8500
ENDCHAR
STARTCHAR commaaccent
ENCODING 806
SWIDTH 527 0
DWIDTH 7 0
BBX 1 2 3 -3
BITMAP
80
80
ENDCHAR
STARTCHAR mu
ENCODING 956
SWIDTH 705 0
DWIDTH 10 0
BBX 9 10 0 -3
BITMAP
080140
080240
180200
140300
240600
281A00
27D200
200000
600000
500000
ENDCHAR
STARTCHAR Wgrave
ENCODING 7808
SWIDTH 1266 0
DWIDTH 18 0
BBX 17 13 0 0
BITMAP
0006000000
0001900000
0000000000
6000E000C0
3001B00180
2402640240
0803180300
0806080600
0609050800
0308021800
0254022400
01A001B000
00E000E000
ENDCHAR
STARTCHAR wgrave
ENCODING 7809
SWIDTH 1266 0
DWIDTH 18 0
BBX 17 13 0 0
BITMAP
0006000000
0001900000
0000000000
6000E000C0
3001B00180
2402640240
0803180300
0806080600
0609050800
0308021800
0254022400
01A001B000
00E000E000
ENDCHAR
STARTCHAR Wacute
ENCODING 7810
SWIDTH 1266 0
DWIDTH 18 0
BBX 17 13 0 0
BITMAP
0000180000
0000900000
0000000000
6000E000C0
3001B00180
2402640240
0803180300
0806080600
0609050800
0308021800
0254022400
01A001B000
00E000E000
ENDCHAR
STARTCHAR wacute
ENCODING 7811
SWIDTH 1266 0
DWIDTH 18 0
BBX 17 13 0 0
BITMAP
0000180000
0000900000
0000000000
6000E000C0
3001B00180
2402640240
0803180300
0806080600
0609050800
0308021800
0254022400
01A001B000
00E000E000
ENDCHAR
STARTCHAR Wdieresis
ENCODING 7812
SWIDTH 1266 0
DWIDTH 18 0
BBX 17 12 0 0
BITMAP
0003180000
0000000000
6000E000C0
3001B00180
2402640240
0803180300
0806080600
0609050800
0308021800
0254022400
01A001B000
00E000E000
ENDCHAR
STARTCHAR wdieresis
ENCODING 7813
SWIDTH 1266 0
DWIDTH 18 0
BBX 17 12 0 0
BITMAP
0003180000
0000000000
6000E000C0
3001B00180
2402640240
0803180300
0806080600
0609050800
0308021800
0254022400
01A001B000
00E000E000
ENDCHAR
STARTCHAR Ygrave
ENCODING 7922
SWIDTH 763 0
DWIDTH 11 0
BBX 9 13 1 0
BITMAP
090000
018000
000000
800180
600200
240900
091400
026000
01C000
008000
008000
008000
008000
ENDCHAR
STARTCHAR ygrave
ENCODING 7923
SWIDTH 911 0
DWIDTH 13 0
BBX 11 13 1 0
BITMAP
024000
006000
000000
800024
800024
800024
900034
6000B4
280764
0BF920
000070
9406D0
2BFA00
ENDCHAR
STARTCHAR endash
ENCODING 8211
SWIDTH 419 0
DWIDTH 6 0
BBX 6 1 0 4
BITMAP
BFE0
ENDCHAR
STARTCHAR emdash
ENCODING 8212
SWIDTH 1000 0
DWIDTH 14 0
BBX 14 1 0 4
BITMAP
FFFFFFF0
ENDCHAR
STARTCHAR quoteleft
ENCODING 8216
SWIDTH 163 0
DWIDTH 2 0
BBX 2 2 0 8
BITMAP
20
60
ENDCHAR
STARTCHAR quoteright
ENCODING 8217
SWIDTH 163 0
DWIDTH 2 0
BBX 2 2 0 8
BITMAP
60
50
ENDCHAR
STARTCHAR quotesinglbase
ENCODING 8218
SWIDTH 163 0
DWIDTH 2 0
BBX 2 2 0 -1
BITMAP
60
50
ENDCHAR
STARTCHAR quotedblleft
ENCODING 8220
SWIDTH 303 0
DWIDTH 4 0
BBX 4 2 0 8
BITMAP
22
65
ENDCHAR
STARTCHAR quotedblright
ENCODING 8221
SWIDTH 303 0
DWIDTH 4 0
BBX 4 2 0 8
BITMAP
66
59
ENDCHAR
STARTCHAR quotedblbase
ENCODING 8222
SWIDTH 303 0
DWIDTH 4 0
BBX 4 2 0 -1
BITMAP
66
59
ENDCHAR
STARTCHAR dagger
ENCODING 8224
SWIDTH 500 0
DWIDTH 7 0
BBX 5 10 1 0
BITMAP
0C00
0C00
0C00
BF80
0C00
0C00
0C00
0C00
0C00
0C00
ENDCHAR
STARTCHAR daggerdbl
ENCODING 8225
SWIDTH 500 0
DWIDTH 7 0
BBX 5 10 1 0
BITMAP
0C00
0C00
0C00
BF80
0C00
0C00
BF80
0C00
0C00
0C00
ENDCHAR
STARTCHAR bullet
ENCODING 8226
SWIDTH 352 0
DWIDTH 5 0
BBX 3 3 1 3
BITMAP
74
B8
74
ENDCHAR
STARTCHAR ellipsis
ENCODING 8230
SWIDTH 555 0
DWIDTH 8 0
BBX 7 1 0 0
BITMAP
724C
ENDCHAR
STARTCHAR perthousand
ENCODING 8240
SWIDTH 1401 0
DWIDTH 20 0
BBX 19 10 0 0
BITMAP
1B80140000
2460600000
6020800000
2462400000
1B85000000
0018BD07E0
0021824818
0092019408
0141824818
0600BE07E0
ENDCHAR
STARTCHAR guilsinglleft
ENCODING 8249
SWIDTH 257 0
DWIDTH 4 0
BBX 3 5 0 2
BITMAP
08
24
60
24
08
ENDCHAR
STARTCHAR guilsinglright
ENCODING 8250
SWIDTH 257 0
DWIDTH 4 0
BBX 3 5 0 2
BITMAP
60
24
0C
24
60
ENDCHAR
STARTCHAR fraction
ENCODING 8260
SWIDTH 200 0
DWIDTH 3 0
BBX 9 10 -3 0
BITMAP
000240
000500
001800
002000
009000
014000
060000
080000
240000
500000
ENDCHAR
STARTCHAR Euro
ENCODING 8364
SWIDTH 833 0
DWIDTH 12 0
BBX 11 10 0 0
BITMAP
006F90
029054
060000
080000
BFFF40
180000
BFFE00
080000
074014
00BF90
ENDCHAR
STARTCHAR trademark
ENCODING 8482
SWIDTH 773 0
DWIDTH 11 0
BBX 10 4 0 6
BITMAP
BE9090
14A090
148650
148950
ENDCHAR
STARTCHAR partialdiff
ENCODING 8706
SWIDTH 790 0
DWIDTH 11 0
BBX 10 10 1 0
BITMAP
0BF900
000740
0000C0
000080
1BF890
6407C0
C00080
800240
A41A00
2FE400
ENDCHAR
STARTCHAR minus
ENCODING 8722
SWIDTH 634 0
DWIDTH 9 0
BBX 7 1 1 4
BITMAP
BFF8
ENDCHAR
STARTCHAR uni2215
ENCODING 8725
SWIDTH 200 0
DWIDTH 3 0
BBX 9 10 -3 0
BITMAP
000240
000500
001800
002000
009000
014000
060000
080000
240000
500000
ENDCHAR
STARTCHAR approxequal
ENCODING 8776
SWIDTH 634 0
DWIDTH 9 0
BBX 7 4 1 3
BITMAP
7904
86F4
7904
86F4
ENDCHAR
STARTCHAR notequal
ENCODING 8800
SWIDTH 634 0
DWIDTH 9 0
BBX 7 8 1 1
BITMAP
0080
0180
BFF8
0200
0600
BFF8
0800
0800
ENDCHAR
STARTCHAR lessequal
ENCODING 8804
SWIDTH 634 0
DWIDTH 9 0
BBX 7 8 1 1
BITMAP
0018
02E0
6D00
E000
6D00
02E0
0018
BFF8
ENDCHAR
STARTCHAR greaterequal
ENCODING 8805
SWIDTH 634 0
DWIDTH 9 0
BBX 7 8 1 1
BITMAP
9000
2D00
01E0
0028
01E0
2D00
9000
BFF8
ENDCHAR
STARTCHAR fi
ENCODING 64257
SWIDTH 1104 0
DWIDTH 15 0
BBX 13 10 1 0
BITMAP
0BFFE0C0
390000C0
600000C0
500000C0
500000C0
7FFFD0C0
500000C0
500000C0
500000C0
500000C0
ENDCHAR
STARTCHAR fl
ENCODING 64258
SWIDTH 1527 0
DWIDTH 21 0
BBX 21 10 1 0
BITMAP
0BFFE0C00000
390000C00000
600000C00000
500000C00000
500000C00000
7FFFD0C00000
500000C00000
500000C00000
500000A00000
5000002FFF40
ENDCHAR
STARTCHAR .notdef
ENCODING -1
SWIDTH 1000 0
DWIDTH 14 0
BBX 1 1 0 0
BITMAP
00
ENDCHAR
ENDFONT
